{
	"asset":{
		"generator":"Khronos glTF Blender I/O v4.3.47",
		"version":"2.0"
	},
	"extensionsUsed":[
		"KHR_texture_transform",
		"KHR_lights_punctual",
		"KHR_animation_pointer"
	],
	"extensionsRequired":[
		"KHR_texture_transform",
		"KHR_lights_punctual"
	],
	"extensions":{
		"KHR_lights_punctual":{
			"lights":[
				{
					"color":[
						0.6142596006393433,
						1,
						0.5379527807235718
					],
					"intensity":1120.1199902296066,
					"type":"directional",
					"name":"Area"
				}
			]
		}
	},
	"scene":0,
	"scenes":[
		{
			"extras":{
				"gltf2_animation_tracks":[
					{
						"name":"Transparent"
					}
				],
				"gltf2_animation_applied":0
			},
			"name":"Scene",
			"nodes":[
				0,
				1,
				2
			]
		}
	],
	"nodes":[
		{
			"extras":{
				"gltf2_animation_rest":[
					1.0,
					0.0,
					0.0,
					0.0,
					0.0,
					1.0,
					0.0,
					0.0,
					0.0,
					0.0,
					1.0,
					0.0,
					0.0,
					0.0,
					0.0,
					1.0
				]
			},
			"mesh":0,
			"name":"Sphere.001"
		},
		{
			"extras":{
				"gltf2_animation_rest":[
					1.0,
					0.0,
					0.0,
					0.0,
					0.0,
					1.0,
					0.0,
					0.0,
					0.0,
					0.0,
					1.0,
					0.0,
					0.0,
					0.0,
					0.0,
					1.0
				]
			},
			"mesh":1,
			"name":"Plane"
		},
		{
			"extensions":{
				"KHR_lights_punctual":{
					"light":0
				}
			},
			"name":"Area",
			"rotation":[
				-0.7045620083808899,
				-0.13740777969360352,
				-0.01951601542532444,
				0.6959386467933655
			],
			"translation":[
				-5.905056476593018,
				21.679548263549805,
				0.7616825103759766
			]
		}
	],
	"animations":[
		{
			"channels":[
				{
					"sampler":0,
					"target":{
						"extensions":{
							"KHR_animation_pointer":{
								"pointer":"/materials/0/pbrMetallicRoughness/baseColorTexture/extensions/KHR_texture_transform/offset"
							}
						},
						"path":"pointer"
					}
				},
				{
					"sampler":1,
					"target":{
						"extensions":{
							"KHR_animation_pointer":{
								"pointer":"/materials/1/pbrMetallicRoughness/baseColorTexture/extensions/KHR_texture_transform/offset"
							}
						},
						"path":"pointer"
					}
				}
			],
			"name":"Transparent",
			"samplers":[
				{
					"input":10,
					"interpolation":"LINEAR",
					"output":11
				},
				{
					"input":10,
					"interpolation":"LINEAR",
					"output":12
				}
			]
		}
	],
	"materials":[
		{
			"alphaMode":"BLEND",
			"doubleSided":true,
			"name":"Animation",
			"pbrMetallicRoughness":{
				"baseColorTexture":{
					"extensions":{
						"KHR_texture_transform":{}
					},
					"index":0
				},
				"metallicFactor":0,
				"roughnessFactor":0.5136363506317139
			}
		},
		{
			"doubleSided":true,
			"name":"Transparent",
			"pbrMetallicRoughness":{
				"baseColorTexture":{
					"extensions":{
						"KHR_texture_transform":{}
					},
					"index":1
				},
				"metallicFactor":0,
				"roughnessFactor":0.5
			}
		}
	],
	"meshes":[
		{
			"name":"Sphere.001",
			"primitives":[
				{
					"attributes":{
						"POSITION":0,
						"NORMAL":1,
						"TEXCOORD_0":2,
						"TANGENT":3
					},
					"indices":4,
					"material":0
				}
			]
		},
		{
			"name":"Plane",
			"primitives":[
				{
					"attributes":{
						"POSITION":5,
						"NORMAL":6,
						"TEXCOORD_0":7,
						"TANGENT":8
					},
					"indices":9,
					"material":1
				}
			]
		}
	],
	"textures":[
		{
			"sampler":0,
			"source":0
		},
		{
			"sampler":0,
			"source":1
		}
	],
	"images":[
		{
			"bufferView":5,
			"mimeType":"image/png",
			"name":"bake"
		},
		{
			"bufferView":11,
			"mimeType":"image/jpeg",
			"name":"grass"
		}
	],
	"accessors":[
		{
			"bufferView":0,
			"componentType":5126,
			"count":2874,
			"max":[
				2.132923126220703,
				5.547040939331055,
				3.286625862121582
			],
			"min":[
				-3.414114236831665,
				0,
				-2.26041316986084
			],
			"type":"VEC3"
		},
		{
			"bufferView":1,
			"componentType":5126,
			"count":2874,
			"type":"VEC3"
		},
		{
			"bufferView":2,
			"componentType":5126,
			"count":2874,
			"type":"VEC2"
		},
		{
			"bufferView":3,
			"componentType":5126,
			"count":2874,
			"type":"VEC4"
		},
		{
			"bufferView":4,
			"componentType":5123,
			"count":2880,
			"type":"SCALAR"
		},
		{
			"bufferView":6,
			"componentType":5126,
			"count":4,
			"max":[
				7.163344383239746,
				0,
				7.163344383239746
			],
			"min":[
				-7.163344383239746,
				0,
				-7.163344383239746
			],
			"type":"VEC3"
		},
		{
			"bufferView":7,
			"componentType":5126,
			"count":4,
			"type":"VEC3"
		},
		{
			"bufferView":8,
			"componentType":5126,
			"count":4,
			"type":"VEC2"
		},
		{
			"bufferView":9,
			"componentType":5126,
			"count":4,
			"type":"VEC4"
		},
		{
			"bufferView":10,
			"componentType":5123,
			"count":6,
			"type":"SCALAR"
		},
		{
			"bufferView":12,
			"componentType":5126,
			"count":60,
			"max":[
				2.5
			],
			"min":[
				0.041666666666666664
			],
			"type":"SCALAR"
		},
		{
			"bufferView":13,
			"componentType":5126,
			"count":60,
			"type":"VEC2"
		},
		{
			"bufferView":14,
			"componentType":5126,
			"count":60,
			"type":"VEC2"
		}
	],
	"bufferViews":[
		{
			"buffer":0,
			"byteLength":34488,
			"byteOffset":0,
			"target":34962
		},
		{
			"buffer":0,
			"byteLength":34488,
			"byteOffset":34488,
			"target":34962
		},
		{
			"buffer":0,
			"byteLength":22992,
			"byteOffset":68976,
			"target":34962
		},
		{
			"buffer":0,
			"byteLength":45984,
			"byteOffset":91968,
			"target":34962
		},
		{
			"buffer":0,
			"byteLength":5760,
			"byteOffset":137952,
			"target":34963
		},
		{
			"buffer":0,
			"byteLength":356607,
			"byteOffset":143712
		},
		{
			"buffer":0,
			"byteLength":48,
			"byteOffset":500320,
			"target":34962
		},
		{
			"buffer":0,
			"byteLength":48,
			"byteOffset":500368,
			"target":34962
		},
		{
			"buffer":0,
			"byteLength":32,
			"byteOffset":500416,
			"target":34962
		},
		{
			"buffer":0,
			"byteLength":64,
			"byteOffset":500448,
			"target":34962
		},
		{
			"buffer":0,
			"byteLength":12,
			"byteOffset":500512,
			"target":34963
		},
		{
			"buffer":0,
			"byteLength":456923,
			"byteOffset":500524
		},
		{
			"buffer":0,
			"byteLength":240,
			"byteOffset":957448
		},
		{
			"buffer":0,
			"byteLength":480,
			"byteOffset":957688
		},
		{
			"buffer":0,
			"byteLength":480,
			"byteOffset":958168
		}
	],
	"samplers":[
		{
			"magFilter":9729,
			"minFilter":9987
		}
	],
	"buffers":[
		{
			"byteLength":958648,
			"uri":"data:application/octet-stream;base64,"
		}
	]
}
